<mxfile host="app.diagrams.net" modified="2024-05-22T21:14:29.418Z" agent="Mozilla/5.0 (Windows NT 10.0; Win64; x64) AppleWebKit/537.36 (KHTML, like Gecko) Chrome/124.0.0.0 Safari/537.36" etag="LSNtcYXT4dDnmrpIa_Ly" version="24.4.6" type="device">
  <diagram name="PÃ¡gina-1" id="-cu9P-KwuaBxFvMalGfa">
    <mxGraphModel dx="1071" dy="3131" grid="1" gridSize="10" guides="1" tooltips="1" connect="1" arrows="1" fold="1" page="1" pageScale="1" pageWidth="827" pageHeight="1169" math="0" shadow="0">
      <root>
        <mxCell id="0" />
        <mxCell id="1" parent="0" />
        <mxCell id="SKXU1txZGcmMUcYrsBVd-101" value="OBRA" style="swimlane;fontStyle=0;childLayout=stackLayout;horizontal=1;startSize=30;horizontalStack=0;resizeParent=1;resizeParentMax=0;resizeLast=0;collapsible=1;marginBottom=0;whiteSpace=wrap;html=1;fillColor=#1ba1e2;fontColor=#ffffff;strokeColor=#006EAF;" vertex="1" parent="1">
          <mxGeometry x="280" y="-1800" width="140" height="210" as="geometry" />
        </mxCell>
        <mxCell id="SKXU1txZGcmMUcYrsBVd-102" value="codigo (PK) : int" style="text;strokeColor=none;fillColor=none;align=left;verticalAlign=middle;spacingLeft=4;spacingRight=4;overflow=hidden;points=[[0,0.5],[1,0.5]];portConstraint=eastwest;rotatable=0;whiteSpace=wrap;html=1;" vertex="1" parent="SKXU1txZGcmMUcYrsBVd-101">
          <mxGeometry y="30" width="140" height="30" as="geometry" />
        </mxCell>
        <mxCell id="SKXU1txZGcmMUcYrsBVd-103" value="titulo : varchar" style="text;strokeColor=none;fillColor=none;align=left;verticalAlign=middle;spacingLeft=4;spacingRight=4;overflow=hidden;points=[[0,0.5],[1,0.5]];portConstraint=eastwest;rotatable=0;whiteSpace=wrap;html=1;" vertex="1" parent="SKXU1txZGcmMUcYrsBVd-101">
          <mxGeometry y="60" width="140" height="30" as="geometry" />
        </mxCell>
        <mxCell id="SKXU1txZGcmMUcYrsBVd-104" value="autor_principal : varchar" style="text;strokeColor=none;fillColor=none;align=left;verticalAlign=middle;spacingLeft=4;spacingRight=4;overflow=hidden;points=[[0,0.5],[1,0.5]];portConstraint=eastwest;rotatable=0;whiteSpace=wrap;html=1;" vertex="1" parent="SKXU1txZGcmMUcYrsBVd-101">
          <mxGeometry y="90" width="140" height="30" as="geometry" />
        </mxCell>
        <mxCell id="SKXU1txZGcmMUcYrsBVd-105" value="ano_publicacao : int" style="text;strokeColor=none;fillColor=none;align=left;verticalAlign=middle;spacingLeft=4;spacingRight=4;overflow=hidden;points=[[0,0.5],[1,0.5]];portConstraint=eastwest;rotatable=0;whiteSpace=wrap;html=1;" vertex="1" parent="SKXU1txZGcmMUcYrsBVd-101">
          <mxGeometry y="120" width="140" height="30" as="geometry" />
        </mxCell>
        <mxCell id="SKXU1txZGcmMUcYrsBVd-106" value="situacao : varchar" style="text;strokeColor=none;fillColor=none;align=left;verticalAlign=middle;spacingLeft=4;spacingRight=4;overflow=hidden;points=[[0,0.5],[1,0.5]];portConstraint=eastwest;rotatable=0;whiteSpace=wrap;html=1;" vertex="1" parent="SKXU1txZGcmMUcYrsBVd-101">
          <mxGeometry y="150" width="140" height="30" as="geometry" />
        </mxCell>
        <mxCell id="SKXU1txZGcmMUcYrsBVd-107" value="editora (FK) : int" style="text;strokeColor=none;fillColor=none;align=left;verticalAlign=middle;spacingLeft=4;spacingRight=4;overflow=hidden;points=[[0,0.5],[1,0.5]];portConstraint=eastwest;rotatable=0;whiteSpace=wrap;html=1;" vertex="1" parent="SKXU1txZGcmMUcYrsBVd-101">
          <mxGeometry y="180" width="140" height="30" as="geometry" />
        </mxCell>
        <mxCell id="SKXU1txZGcmMUcYrsBVd-108" value="EDITORA" style="swimlane;fontStyle=0;childLayout=stackLayout;horizontal=1;startSize=30;horizontalStack=0;resizeParent=1;resizeParentMax=0;resizeLast=0;collapsible=1;marginBottom=0;whiteSpace=wrap;html=1;fillColor=#1ba1e2;fontColor=#ffffff;strokeColor=#006EAF;" vertex="1" parent="1">
          <mxGeometry x="60" y="-1800" width="140" height="120" as="geometry" />
        </mxCell>
        <mxCell id="SKXU1txZGcmMUcYrsBVd-109" value="codigo (PK) : int" style="text;strokeColor=none;fillColor=none;align=left;verticalAlign=middle;spacingLeft=4;spacingRight=4;overflow=hidden;points=[[0,0.5],[1,0.5]];portConstraint=eastwest;rotatable=0;whiteSpace=wrap;html=1;" vertex="1" parent="SKXU1txZGcmMUcYrsBVd-108">
          <mxGeometry y="30" width="140" height="30" as="geometry" />
        </mxCell>
        <mxCell id="SKXU1txZGcmMUcYrsBVd-110" value="nome : varchar" style="text;strokeColor=none;fillColor=none;align=left;verticalAlign=middle;spacingLeft=4;spacingRight=4;overflow=hidden;points=[[0,0.5],[1,0.5]];portConstraint=eastwest;rotatable=0;whiteSpace=wrap;html=1;" vertex="1" parent="SKXU1txZGcmMUcYrsBVd-108">
          <mxGeometry y="60" width="140" height="30" as="geometry" />
        </mxCell>
        <mxCell id="SKXU1txZGcmMUcYrsBVd-111" value="cidade : varchar" style="text;strokeColor=none;fillColor=none;align=left;verticalAlign=middle;spacingLeft=4;spacingRight=4;overflow=hidden;points=[[0,0.5],[1,0.5]];portConstraint=eastwest;rotatable=0;whiteSpace=wrap;html=1;" vertex="1" parent="SKXU1txZGcmMUcYrsBVd-108">
          <mxGeometry y="90" width="140" height="30" as="geometry" />
        </mxCell>
        <mxCell id="SKXU1txZGcmMUcYrsBVd-112" value="DEPARTAMENTO" style="swimlane;fontStyle=0;childLayout=stackLayout;horizontal=1;startSize=30;horizontalStack=0;resizeParent=1;resizeParentMax=0;resizeLast=0;collapsible=1;marginBottom=0;whiteSpace=wrap;html=1;fillColor=#1ba1e2;fontColor=#ffffff;strokeColor=#006EAF;" vertex="1" parent="1">
          <mxGeometry x="490" y="-1800" width="140" height="120" as="geometry" />
        </mxCell>
        <mxCell id="SKXU1txZGcmMUcYrsBVd-113" value="codigo (PK) : int" style="text;strokeColor=none;fillColor=none;align=left;verticalAlign=middle;spacingLeft=4;spacingRight=4;overflow=hidden;points=[[0,0.5],[1,0.5]];portConstraint=eastwest;rotatable=0;whiteSpace=wrap;html=1;" vertex="1" parent="SKXU1txZGcmMUcYrsBVd-112">
          <mxGeometry y="30" width="140" height="30" as="geometry" />
        </mxCell>
        <mxCell id="SKXU1txZGcmMUcYrsBVd-114" value="nome : varchar" style="text;strokeColor=none;fillColor=none;align=left;verticalAlign=middle;spacingLeft=4;spacingRight=4;overflow=hidden;points=[[0,0.5],[1,0.5]];portConstraint=eastwest;rotatable=0;whiteSpace=wrap;html=1;" vertex="1" parent="SKXU1txZGcmMUcYrsBVd-112">
          <mxGeometry y="60" width="140" height="30" as="geometry" />
        </mxCell>
        <mxCell id="SKXU1txZGcmMUcYrsBVd-115" value="chefe (FK) : int" style="text;strokeColor=none;fillColor=none;align=left;verticalAlign=middle;spacingLeft=4;spacingRight=4;overflow=hidden;points=[[0,0.5],[1,0.5]];portConstraint=eastwest;rotatable=0;whiteSpace=wrap;html=1;" vertex="1" parent="SKXU1txZGcmMUcYrsBVd-112">
          <mxGeometry y="90" width="140" height="30" as="geometry" />
        </mxCell>
        <mxCell id="SKXU1txZGcmMUcYrsBVd-116" style="edgeStyle=orthogonalEdgeStyle;rounded=0;orthogonalLoop=1;jettySize=auto;html=1;entryX=0.5;entryY=0;entryDx=0;entryDy=0;endArrow=none;endFill=0;" edge="1" parent="1" source="SKXU1txZGcmMUcYrsBVd-117" target="SKXU1txZGcmMUcYrsBVd-128">
          <mxGeometry relative="1" as="geometry" />
        </mxCell>
        <mxCell id="SKXU1txZGcmMUcYrsBVd-117" value="FUNCIONARIO" style="swimlane;fontStyle=0;childLayout=stackLayout;horizontal=1;startSize=30;horizontalStack=0;resizeParent=1;resizeParentMax=0;resizeLast=0;collapsible=1;marginBottom=0;whiteSpace=wrap;html=1;fillColor=#1ba1e2;strokeColor=#006EAF;fontColor=#ffffff;" vertex="1" parent="1">
          <mxGeometry x="760" y="-1800" width="170" height="120" as="geometry" />
        </mxCell>
        <mxCell id="SKXU1txZGcmMUcYrsBVd-118" value="numero_matricula (PK) : int" style="text;strokeColor=none;fillColor=none;align=left;verticalAlign=middle;spacingLeft=4;spacingRight=4;overflow=hidden;points=[[0,0.5],[1,0.5]];portConstraint=eastwest;rotatable=0;whiteSpace=wrap;html=1;" vertex="1" parent="SKXU1txZGcmMUcYrsBVd-117">
          <mxGeometry y="30" width="170" height="30" as="geometry" />
        </mxCell>
        <mxCell id="SKXU1txZGcmMUcYrsBVd-119" value="nome : varchar" style="text;strokeColor=none;fillColor=none;align=left;verticalAlign=middle;spacingLeft=4;spacingRight=4;overflow=hidden;points=[[0,0.5],[1,0.5]];portConstraint=eastwest;rotatable=0;whiteSpace=wrap;html=1;" vertex="1" parent="SKXU1txZGcmMUcYrsBVd-117">
          <mxGeometry y="60" width="170" height="30" as="geometry" />
        </mxCell>
        <mxCell id="SKXU1txZGcmMUcYrsBVd-120" value="departamento (FK) : int" style="text;strokeColor=none;fillColor=none;align=left;verticalAlign=middle;spacingLeft=4;spacingRight=4;overflow=hidden;points=[[0,0.5],[1,0.5]];portConstraint=eastwest;rotatable=0;whiteSpace=wrap;html=1;" vertex="1" parent="SKXU1txZGcmMUcYrsBVd-117">
          <mxGeometry y="90" width="170" height="30" as="geometry" />
        </mxCell>
        <mxCell id="SKXU1txZGcmMUcYrsBVd-121" style="edgeStyle=orthogonalEdgeStyle;rounded=0;orthogonalLoop=1;jettySize=auto;html=1;entryX=1;entryY=0.5;entryDx=0;entryDy=0;endArrow=none;endFill=0;" edge="1" parent="1" source="SKXU1txZGcmMUcYrsBVd-122" target="SKXU1txZGcmMUcYrsBVd-146">
          <mxGeometry relative="1" as="geometry" />
        </mxCell>
        <mxCell id="SKXU1txZGcmMUcYrsBVd-122" value="USUARIO" style="swimlane;fontStyle=0;childLayout=stackLayout;horizontal=1;startSize=30;horizontalStack=0;resizeParent=1;resizeParentMax=0;resizeLast=0;collapsible=1;marginBottom=0;whiteSpace=wrap;html=1;fillColor=#1ba1e2;fontColor=#ffffff;strokeColor=#006EAF;" vertex="1" parent="1">
          <mxGeometry x="490" y="-1460" width="140" height="180" as="geometry" />
        </mxCell>
        <mxCell id="SKXU1txZGcmMUcYrsBVd-123" value="codigo (PK) : int" style="text;strokeColor=none;fillColor=none;align=left;verticalAlign=middle;spacingLeft=4;spacingRight=4;overflow=hidden;points=[[0,0.5],[1,0.5]];portConstraint=eastwest;rotatable=0;whiteSpace=wrap;html=1;" vertex="1" parent="SKXU1txZGcmMUcYrsBVd-122">
          <mxGeometry y="30" width="140" height="30" as="geometry" />
        </mxCell>
        <mxCell id="SKXU1txZGcmMUcYrsBVd-124" value="nome : varchar" style="text;strokeColor=none;fillColor=none;align=left;verticalAlign=middle;spacingLeft=4;spacingRight=4;overflow=hidden;points=[[0,0.5],[1,0.5]];portConstraint=eastwest;rotatable=0;whiteSpace=wrap;html=1;" vertex="1" parent="SKXU1txZGcmMUcYrsBVd-122">
          <mxGeometry y="60" width="140" height="30" as="geometry" />
        </mxCell>
        <mxCell id="SKXU1txZGcmMUcYrsBVd-125" value="endereco : varchar" style="text;strokeColor=none;fillColor=none;align=left;verticalAlign=middle;spacingLeft=4;spacingRight=4;overflow=hidden;points=[[0,0.5],[1,0.5]];portConstraint=eastwest;rotatable=0;whiteSpace=wrap;html=1;" vertex="1" parent="SKXU1txZGcmMUcYrsBVd-122">
          <mxGeometry y="90" width="140" height="30" as="geometry" />
        </mxCell>
        <mxCell id="SKXU1txZGcmMUcYrsBVd-126" value="telefone : varchar" style="text;strokeColor=none;fillColor=none;align=left;verticalAlign=middle;spacingLeft=4;spacingRight=4;overflow=hidden;points=[[0,0.5],[1,0.5]];portConstraint=eastwest;rotatable=0;whiteSpace=wrap;html=1;" vertex="1" parent="SKXU1txZGcmMUcYrsBVd-122">
          <mxGeometry y="120" width="140" height="30" as="geometry" />
        </mxCell>
        <mxCell id="SKXU1txZGcmMUcYrsBVd-127" value="CPF : varchar" style="text;strokeColor=none;fillColor=none;align=left;verticalAlign=middle;spacingLeft=4;spacingRight=4;overflow=hidden;points=[[0,0.5],[1,0.5]];portConstraint=eastwest;rotatable=0;whiteSpace=wrap;html=1;" vertex="1" parent="SKXU1txZGcmMUcYrsBVd-122">
          <mxGeometry y="150" width="140" height="30" as="geometry" />
        </mxCell>
        <mxCell id="SKXU1txZGcmMUcYrsBVd-128" value="EMPRESTIMO" style="swimlane;fontStyle=0;childLayout=stackLayout;horizontal=1;startSize=30;horizontalStack=0;resizeParent=1;resizeParentMax=0;resizeLast=0;collapsible=1;marginBottom=0;whiteSpace=wrap;html=1;fillColor=#1ba1e2;fontColor=#ffffff;strokeColor=#006EAF;" vertex="1" parent="1">
          <mxGeometry x="710" y="-1520" width="210" height="210" as="geometry" />
        </mxCell>
        <mxCell id="SKXU1txZGcmMUcYrsBVd-129" value="codigo (PK) : int" style="text;strokeColor=none;fillColor=none;align=left;verticalAlign=middle;spacingLeft=4;spacingRight=4;overflow=hidden;points=[[0,0.5],[1,0.5]];portConstraint=eastwest;rotatable=0;whiteSpace=wrap;html=1;" vertex="1" parent="SKXU1txZGcmMUcYrsBVd-128">
          <mxGeometry y="30" width="210" height="30" as="geometry" />
        </mxCell>
        <mxCell id="SKXU1txZGcmMUcYrsBVd-130" value="data/hora_emprestimo : datetime" style="text;strokeColor=none;fillColor=none;align=left;verticalAlign=middle;spacingLeft=4;spacingRight=4;overflow=hidden;points=[[0,0.5],[1,0.5]];portConstraint=eastwest;rotatable=0;whiteSpace=wrap;html=1;" vertex="1" parent="SKXU1txZGcmMUcYrsBVd-128">
          <mxGeometry y="60" width="210" height="30" as="geometry" />
        </mxCell>
        <mxCell id="SKXU1txZGcmMUcYrsBVd-131" value="data_prev_retorno&amp;nbsp; : date" style="text;strokeColor=none;fillColor=none;align=left;verticalAlign=middle;spacingLeft=4;spacingRight=4;overflow=hidden;points=[[0,0.5],[1,0.5]];portConstraint=eastwest;rotatable=0;whiteSpace=wrap;html=1;" vertex="1" parent="SKXU1txZGcmMUcYrsBVd-128">
          <mxGeometry y="90" width="210" height="30" as="geometry" />
        </mxCell>
        <mxCell id="SKXU1txZGcmMUcYrsBVd-132" value="data/hora_devol : datetime" style="text;strokeColor=none;fillColor=none;align=left;verticalAlign=middle;spacingLeft=4;spacingRight=4;overflow=hidden;points=[[0,0.5],[1,0.5]];portConstraint=eastwest;rotatable=0;whiteSpace=wrap;html=1;" vertex="1" parent="SKXU1txZGcmMUcYrsBVd-128">
          <mxGeometry y="120" width="210" height="30" as="geometry" />
        </mxCell>
        <mxCell id="SKXU1txZGcmMUcYrsBVd-133" value="Usuario (FK) : int" style="text;strokeColor=none;fillColor=none;align=left;verticalAlign=middle;spacingLeft=4;spacingRight=4;overflow=hidden;points=[[0,0.5],[1,0.5]];portConstraint=eastwest;rotatable=0;whiteSpace=wrap;html=1;" vertex="1" parent="SKXU1txZGcmMUcYrsBVd-128">
          <mxGeometry y="150" width="210" height="30" as="geometry" />
        </mxCell>
        <mxCell id="SKXU1txZGcmMUcYrsBVd-134" value="Funcionario (FK) : int" style="text;strokeColor=none;fillColor=none;align=left;verticalAlign=middle;spacingLeft=4;spacingRight=4;overflow=hidden;points=[[0,0.5],[1,0.5]];portConstraint=eastwest;rotatable=0;whiteSpace=wrap;html=1;" vertex="1" parent="SKXU1txZGcmMUcYrsBVd-128">
          <mxGeometry y="180" width="210" height="30" as="geometry" />
        </mxCell>
        <mxCell id="SKXU1txZGcmMUcYrsBVd-135" style="edgeStyle=orthogonalEdgeStyle;rounded=0;orthogonalLoop=1;jettySize=auto;html=1;endArrow=none;endFill=0;" edge="1" parent="1" source="SKXU1txZGcmMUcYrsBVd-136" target="SKXU1txZGcmMUcYrsBVd-112">
          <mxGeometry relative="1" as="geometry" />
        </mxCell>
        <mxCell id="SKXU1txZGcmMUcYrsBVd-136" value="CHEFE" style="swimlane;fontStyle=0;childLayout=stackLayout;horizontal=1;startSize=30;horizontalStack=0;resizeParent=1;resizeParentMax=0;resizeLast=0;collapsible=1;marginBottom=0;whiteSpace=wrap;html=1;fillColor=#1ba1e2;fontColor=#ffffff;strokeColor=#006EAF;" vertex="1" parent="1">
          <mxGeometry x="475" y="-1970" width="170" height="90" as="geometry" />
        </mxCell>
        <mxCell id="SKXU1txZGcmMUcYrsBVd-137" value="codigo (PK) : int" style="text;strokeColor=none;fillColor=none;align=left;verticalAlign=middle;spacingLeft=4;spacingRight=4;overflow=hidden;points=[[0,0.5],[1,0.5]];portConstraint=eastwest;rotatable=0;whiteSpace=wrap;html=1;" vertex="1" parent="SKXU1txZGcmMUcYrsBVd-136">
          <mxGeometry y="30" width="170" height="30" as="geometry" />
        </mxCell>
        <mxCell id="SKXU1txZGcmMUcYrsBVd-138" value="nome : varchar" style="text;strokeColor=none;fillColor=none;align=left;verticalAlign=middle;spacingLeft=4;spacingRight=4;overflow=hidden;points=[[0,0.5],[1,0.5]];portConstraint=eastwest;rotatable=0;whiteSpace=wrap;html=1;" vertex="1" parent="SKXU1txZGcmMUcYrsBVd-136">
          <mxGeometry y="60" width="170" height="30" as="geometry" />
        </mxCell>
        <mxCell id="SKXU1txZGcmMUcYrsBVd-139" style="edgeStyle=orthogonalEdgeStyle;rounded=0;orthogonalLoop=1;jettySize=auto;html=1;endArrow=none;endFill=0;" edge="1" parent="1" source="SKXU1txZGcmMUcYrsBVd-140" target="SKXU1txZGcmMUcYrsBVd-107">
          <mxGeometry relative="1" as="geometry" />
        </mxCell>
        <mxCell id="SKXU1txZGcmMUcYrsBVd-140" value="EMPRESTIMO_OBRA" style="swimlane;fontStyle=0;childLayout=stackLayout;horizontal=1;startSize=30;horizontalStack=0;resizeParent=1;resizeParentMax=0;resizeLast=0;collapsible=1;marginBottom=0;whiteSpace=wrap;html=1;fillColor=#1ba1e2;fontColor=#ffffff;strokeColor=#006EAF;" vertex="1" parent="1">
          <mxGeometry x="510" y="-1650" width="170" height="90" as="geometry" />
        </mxCell>
        <mxCell id="SKXU1txZGcmMUcYrsBVd-141" value="Emprestimo (PK, FK) : int" style="text;strokeColor=none;fillColor=none;align=left;verticalAlign=middle;spacingLeft=4;spacingRight=4;overflow=hidden;points=[[0,0.5],[1,0.5]];portConstraint=eastwest;rotatable=0;whiteSpace=wrap;html=1;" vertex="1" parent="SKXU1txZGcmMUcYrsBVd-140">
          <mxGeometry y="30" width="170" height="30" as="geometry" />
        </mxCell>
        <mxCell id="SKXU1txZGcmMUcYrsBVd-142" value="Obra (PK, FK) : int" style="text;strokeColor=none;fillColor=none;align=left;verticalAlign=middle;spacingLeft=4;spacingRight=4;overflow=hidden;points=[[0,0.5],[1,0.5]];portConstraint=eastwest;rotatable=0;whiteSpace=wrap;html=1;" vertex="1" parent="SKXU1txZGcmMUcYrsBVd-140">
          <mxGeometry y="60" width="170" height="30" as="geometry" />
        </mxCell>
        <mxCell id="SKXU1txZGcmMUcYrsBVd-143" value="RESERVA" style="swimlane;fontStyle=0;childLayout=stackLayout;horizontal=1;startSize=30;horizontalStack=0;resizeParent=1;resizeParentMax=0;resizeLast=0;collapsible=1;marginBottom=0;whiteSpace=wrap;html=1;fillColor=#1ba1e2;fontColor=#ffffff;strokeColor=#006EAF;" vertex="1" parent="1">
          <mxGeometry x="220" y="-1460" width="180" height="180" as="geometry" />
        </mxCell>
        <mxCell id="SKXU1txZGcmMUcYrsBVd-144" value="codigo (PK) : int" style="text;strokeColor=none;fillColor=none;align=left;verticalAlign=middle;spacingLeft=4;spacingRight=4;overflow=hidden;points=[[0,0.5],[1,0.5]];portConstraint=eastwest;rotatable=0;whiteSpace=wrap;html=1;" vertex="1" parent="SKXU1txZGcmMUcYrsBVd-143">
          <mxGeometry y="30" width="180" height="30" as="geometry" />
        </mxCell>
        <mxCell id="SKXU1txZGcmMUcYrsBVd-145" value="data/hora_reserva : datetime" style="text;strokeColor=none;fillColor=none;align=left;verticalAlign=middle;spacingLeft=4;spacingRight=4;overflow=hidden;points=[[0,0.5],[1,0.5]];portConstraint=eastwest;rotatable=0;whiteSpace=wrap;html=1;" vertex="1" parent="SKXU1txZGcmMUcYrsBVd-143">
          <mxGeometry y="60" width="180" height="30" as="geometry" />
        </mxCell>
        <mxCell id="SKXU1txZGcmMUcYrsBVd-146" value="data_retirada&amp;nbsp; : date" style="text;strokeColor=none;fillColor=none;align=left;verticalAlign=middle;spacingLeft=4;spacingRight=4;overflow=hidden;points=[[0,0.5],[1,0.5]];portConstraint=eastwest;rotatable=0;whiteSpace=wrap;html=1;" vertex="1" parent="SKXU1txZGcmMUcYrsBVd-143">
          <mxGeometry y="90" width="180" height="30" as="geometry" />
        </mxCell>
        <mxCell id="SKXU1txZGcmMUcYrsBVd-147" value="Usuario (FK) : int" style="text;strokeColor=none;fillColor=none;align=left;verticalAlign=middle;spacingLeft=4;spacingRight=4;overflow=hidden;points=[[0,0.5],[1,0.5]];portConstraint=eastwest;rotatable=0;whiteSpace=wrap;html=1;" vertex="1" parent="SKXU1txZGcmMUcYrsBVd-143">
          <mxGeometry y="120" width="180" height="30" as="geometry" />
        </mxCell>
        <mxCell id="SKXU1txZGcmMUcYrsBVd-148" value="Obra (FK) : int" style="text;strokeColor=none;fillColor=none;align=left;verticalAlign=middle;spacingLeft=4;spacingRight=4;overflow=hidden;points=[[0,0.5],[1,0.5]];portConstraint=eastwest;rotatable=0;whiteSpace=wrap;html=1;" vertex="1" parent="SKXU1txZGcmMUcYrsBVd-143">
          <mxGeometry y="150" width="180" height="30" as="geometry" />
        </mxCell>
        <mxCell id="SKXU1txZGcmMUcYrsBVd-149" value="" style="endArrow=none;endFill=0;html=1;edgeStyle=orthogonalEdgeStyle;align=left;verticalAlign=top;rounded=0;exitX=1;exitY=0.5;exitDx=0;exitDy=0;entryX=0;entryY=0.5;entryDx=0;entryDy=0;" edge="1" parent="1" source="SKXU1txZGcmMUcYrsBVd-110" target="SKXU1txZGcmMUcYrsBVd-104">
          <mxGeometry x="-1" relative="1" as="geometry">
            <mxPoint x="350" y="-1550" as="sourcePoint" />
            <mxPoint x="510" y="-1550" as="targetPoint" />
          </mxGeometry>
        </mxCell>
        <mxCell id="SKXU1txZGcmMUcYrsBVd-150" value="N" style="edgeLabel;resizable=0;html=1;align=left;verticalAlign=bottom;fontSize=15;" connectable="0" vertex="1" parent="1">
          <mxGeometry x="260" y="-1670" as="geometry" />
        </mxCell>
        <mxCell id="SKXU1txZGcmMUcYrsBVd-151" value="1" style="edgeLabel;resizable=0;html=1;align=left;verticalAlign=bottom;fontSize=15;" connectable="0" vertex="1" parent="1">
          <mxGeometry x="210" y="-1730" as="geometry" />
        </mxCell>
        <mxCell id="SKXU1txZGcmMUcYrsBVd-152" value="" style="endArrow=none;endFill=0;html=1;edgeStyle=orthogonalEdgeStyle;align=left;verticalAlign=top;rounded=0;exitX=1;exitY=0.5;exitDx=0;exitDy=0;entryX=0;entryY=0.5;entryDx=0;entryDy=0;" edge="1" parent="1" source="SKXU1txZGcmMUcYrsBVd-114" target="SKXU1txZGcmMUcYrsBVd-119">
          <mxGeometry x="-1" relative="1" as="geometry">
            <mxPoint x="660" y="-1755" as="sourcePoint" />
            <mxPoint x="740" y="-1725" as="targetPoint" />
          </mxGeometry>
        </mxCell>
        <mxCell id="SKXU1txZGcmMUcYrsBVd-153" value="1" style="edgeLabel;resizable=0;html=1;align=left;verticalAlign=bottom;fontSize=15;" connectable="0" vertex="1" parent="1">
          <mxGeometry x="640" y="-1730" as="geometry" />
        </mxCell>
        <mxCell id="SKXU1txZGcmMUcYrsBVd-154" value="N" style="edgeLabel;resizable=0;html=1;align=left;verticalAlign=bottom;fontSize=15;" connectable="0" vertex="1" parent="1">
          <mxGeometry x="740" y="-1730" as="geometry" />
        </mxCell>
        <mxCell id="SKXU1txZGcmMUcYrsBVd-155" value="1" style="edgeLabel;resizable=0;html=1;align=left;verticalAlign=bottom;fontSize=15;" connectable="0" vertex="1" parent="1">
          <mxGeometry x="540" y="-1850" as="geometry" />
        </mxCell>
        <mxCell id="SKXU1txZGcmMUcYrsBVd-156" value="1" style="edgeLabel;resizable=0;html=1;align=left;verticalAlign=bottom;fontSize=15;" connectable="0" vertex="1" parent="1">
          <mxGeometry x="540" y="-1800" as="geometry" />
        </mxCell>
        <mxCell id="SKXU1txZGcmMUcYrsBVd-157" style="edgeStyle=orthogonalEdgeStyle;rounded=0;orthogonalLoop=1;jettySize=auto;html=1;entryX=0;entryY=0.5;entryDx=0;entryDy=0;endArrow=none;endFill=0;" edge="1" parent="1" source="SKXU1txZGcmMUcYrsBVd-124" target="SKXU1txZGcmMUcYrsBVd-132">
          <mxGeometry relative="1" as="geometry" />
        </mxCell>
        <mxCell id="SKXU1txZGcmMUcYrsBVd-158" value="1" style="edgeLabel;resizable=0;html=1;align=left;verticalAlign=bottom;fontSize=15;" connectable="0" vertex="1" parent="1">
          <mxGeometry x="640" y="-1390" as="geometry" />
        </mxCell>
        <mxCell id="SKXU1txZGcmMUcYrsBVd-159" value="N" style="edgeLabel;resizable=0;html=1;align=left;verticalAlign=bottom;fontSize=15;" connectable="0" vertex="1" parent="1">
          <mxGeometry x="690" y="-1390" as="geometry" />
        </mxCell>
        <mxCell id="SKXU1txZGcmMUcYrsBVd-160" value="1" style="edgeLabel;resizable=0;html=1;align=left;verticalAlign=bottom;fontSize=15;" connectable="0" vertex="1" parent="1">
          <mxGeometry x="650" y="-1720" as="geometry">
            <mxPoint x="174" y="68" as="offset" />
          </mxGeometry>
        </mxCell>
        <mxCell id="SKXU1txZGcmMUcYrsBVd-161" value="N" style="edgeLabel;resizable=0;html=1;align=left;verticalAlign=bottom;fontSize=15;" connectable="0" vertex="1" parent="1">
          <mxGeometry x="750" y="-1720" as="geometry">
            <mxPoint x="44" y="188" as="offset" />
          </mxGeometry>
        </mxCell>
        <mxCell id="SKXU1txZGcmMUcYrsBVd-162" value="N" style="edgeLabel;resizable=0;html=1;align=left;verticalAlign=bottom;fontSize=15;" connectable="0" vertex="1" parent="1">
          <mxGeometry x="690" y="-1500" as="geometry" />
        </mxCell>
        <mxCell id="SKXU1txZGcmMUcYrsBVd-163" value="N" style="edgeLabel;resizable=0;html=1;align=left;verticalAlign=bottom;fontSize=15;" connectable="0" vertex="1" parent="1">
          <mxGeometry x="430" y="-1580" as="geometry" />
        </mxCell>
        <mxCell id="SKXU1txZGcmMUcYrsBVd-164" value="1" style="edgeLabel;resizable=0;html=1;align=left;verticalAlign=bottom;fontSize=15;" connectable="0" vertex="1" parent="1">
          <mxGeometry x="475" y="-1374" as="geometry" />
        </mxCell>
        <mxCell id="SKXU1txZGcmMUcYrsBVd-165" value="N" style="edgeLabel;resizable=0;html=1;align=left;verticalAlign=bottom;fontSize=15;" connectable="0" vertex="1" parent="1">
          <mxGeometry x="410" y="-1360" as="geometry" />
        </mxCell>
        <mxCell id="SKXU1txZGcmMUcYrsBVd-166" style="edgeStyle=orthogonalEdgeStyle;rounded=0;orthogonalLoop=1;jettySize=auto;html=1;endArrow=none;endFill=0;entryX=0.21;entryY=1.064;entryDx=0;entryDy=0;entryPerimeter=0;" edge="1" parent="1" source="SKXU1txZGcmMUcYrsBVd-143" target="SKXU1txZGcmMUcYrsBVd-107">
          <mxGeometry relative="1" as="geometry">
            <mxPoint x="310" y="-1580" as="targetPoint" />
            <Array as="points">
              <mxPoint x="310" y="-1525" />
              <mxPoint x="309" y="-1525" />
              <mxPoint x="309" y="-1588" />
            </Array>
          </mxGeometry>
        </mxCell>
        <mxCell id="SKXU1txZGcmMUcYrsBVd-167" value="1" style="edgeLabel;resizable=0;html=1;align=left;verticalAlign=bottom;fontSize=15;" connectable="0" vertex="1" parent="1">
          <mxGeometry x="290" y="-1560" as="geometry" />
        </mxCell>
        <mxCell id="SKXU1txZGcmMUcYrsBVd-168" value="N" style="edgeLabel;resizable=0;html=1;align=left;verticalAlign=bottom;fontSize=15;" connectable="0" vertex="1" parent="1">
          <mxGeometry x="290" y="-1460" as="geometry" />
        </mxCell>
        <mxCell id="SKXU1txZGcmMUcYrsBVd-169" style="edgeStyle=orthogonalEdgeStyle;rounded=0;orthogonalLoop=1;jettySize=auto;html=1;entryX=-0.006;entryY=-0.06;entryDx=0;entryDy=0;entryPerimeter=0;endArrow=none;endFill=0;" edge="1" parent="1" source="SKXU1txZGcmMUcYrsBVd-140" target="SKXU1txZGcmMUcYrsBVd-129">
          <mxGeometry relative="1" as="geometry" />
        </mxCell>
        <mxCell id="SKXU1txZGcmMUcYrsBVd-170" value="N" style="edgeLabel;resizable=0;html=1;align=left;verticalAlign=bottom;fontSize=15;" connectable="0" vertex="1" parent="1">
          <mxGeometry x="490" y="-1580" as="geometry" />
        </mxCell>
        <mxCell id="SKXU1txZGcmMUcYrsBVd-171" value="N" style="edgeLabel;resizable=0;html=1;align=left;verticalAlign=bottom;fontSize=15;" connectable="0" vertex="1" parent="1">
          <mxGeometry x="600" y="-1530" as="geometry" />
        </mxCell>
        <mxCell id="SKXU1txZGcmMUcYrsBVd-172" value="&lt;font style=&quot;font-size: 24px;&quot;&gt;CHEFE&lt;/font&gt;" style="html=1;whiteSpace=wrap;fillColor=#b1ddf0;strokeColor=#10739e;" vertex="1" parent="1">
          <mxGeometry x="1679" y="-1846" width="130" height="100" as="geometry" />
        </mxCell>
        <mxCell id="SKXU1txZGcmMUcYrsBVd-175" style="edgeStyle=orthogonalEdgeStyle;rounded=0;orthogonalLoop=1;jettySize=auto;html=1;" edge="1" parent="1" source="SKXU1txZGcmMUcYrsBVd-173" target="SKXU1txZGcmMUcYrsBVd-172">
          <mxGeometry relative="1" as="geometry" />
        </mxCell>
        <mxCell id="SKXU1txZGcmMUcYrsBVd-173" value="&lt;font style=&quot;font-size: 18px;&quot;&gt;CODIGO&lt;/font&gt;" style="ellipse;whiteSpace=wrap;html=1;fillColor=#fff2cc;strokeColor=#d6b656;" vertex="1" parent="1">
          <mxGeometry x="1599" y="-1956" width="140" height="70" as="geometry" />
        </mxCell>
        <mxCell id="SKXU1txZGcmMUcYrsBVd-176" style="edgeStyle=orthogonalEdgeStyle;rounded=0;orthogonalLoop=1;jettySize=auto;html=1;entryX=0.5;entryY=0;entryDx=0;entryDy=0;" edge="1" parent="1" source="SKXU1txZGcmMUcYrsBVd-174" target="SKXU1txZGcmMUcYrsBVd-172">
          <mxGeometry relative="1" as="geometry" />
        </mxCell>
        <mxCell id="SKXU1txZGcmMUcYrsBVd-174" value="&lt;font style=&quot;font-size: 18px;&quot;&gt;NOME&lt;/font&gt;" style="ellipse;whiteSpace=wrap;html=1;fillColor=#fff2cc;strokeColor=#d6b656;" vertex="1" parent="1">
          <mxGeometry x="1769" y="-1956" width="140" height="70" as="geometry" />
        </mxCell>
        <mxCell id="SKXU1txZGcmMUcYrsBVd-182" style="edgeStyle=orthogonalEdgeStyle;rounded=0;orthogonalLoop=1;jettySize=auto;html=1;entryX=0.5;entryY=1;entryDx=0;entryDy=0;" edge="1" parent="1" source="SKXU1txZGcmMUcYrsBVd-177" target="SKXU1txZGcmMUcYrsBVd-172">
          <mxGeometry relative="1" as="geometry" />
        </mxCell>
        <mxCell id="SKXU1txZGcmMUcYrsBVd-177" value="&lt;span style=&quot;font-size: 24px;&quot;&gt;DEPARTAMENTO&lt;/span&gt;" style="html=1;whiteSpace=wrap;fillColor=#b1ddf0;strokeColor=#10739e;" vertex="1" parent="1">
          <mxGeometry x="1609" y="-1646" width="270" height="100" as="geometry" />
        </mxCell>
        <mxCell id="SKXU1txZGcmMUcYrsBVd-183" style="edgeStyle=orthogonalEdgeStyle;rounded=0;orthogonalLoop=1;jettySize=auto;html=1;entryX=0;entryY=0.5;entryDx=0;entryDy=0;" edge="1" parent="1" source="SKXU1txZGcmMUcYrsBVd-178" target="SKXU1txZGcmMUcYrsBVd-177">
          <mxGeometry relative="1" as="geometry" />
        </mxCell>
        <mxCell id="SKXU1txZGcmMUcYrsBVd-178" value="&lt;font style=&quot;font-size: 18px;&quot;&gt;CODIGO&lt;/font&gt;" style="ellipse;whiteSpace=wrap;html=1;fillColor=#fff2cc;strokeColor=#d6b656;" vertex="1" parent="1">
          <mxGeometry x="1479" y="-1746" width="140" height="70" as="geometry" />
        </mxCell>
        <mxCell id="SKXU1txZGcmMUcYrsBVd-184" style="edgeStyle=orthogonalEdgeStyle;rounded=0;orthogonalLoop=1;jettySize=auto;html=1;entryX=1;entryY=0.5;entryDx=0;entryDy=0;" edge="1" parent="1" source="SKXU1txZGcmMUcYrsBVd-179" target="SKXU1txZGcmMUcYrsBVd-177">
          <mxGeometry relative="1" as="geometry">
            <Array as="points">
              <mxPoint x="1959" y="-1596" />
            </Array>
          </mxGeometry>
        </mxCell>
        <mxCell id="SKXU1txZGcmMUcYrsBVd-179" value="&lt;font style=&quot;font-size: 18px;&quot;&gt;NOME&lt;/font&gt;" style="ellipse;whiteSpace=wrap;html=1;fillColor=#fff2cc;strokeColor=#d6b656;" vertex="1" parent="1">
          <mxGeometry x="1889" y="-1726" width="140" height="70" as="geometry" />
        </mxCell>
        <mxCell id="SKXU1txZGcmMUcYrsBVd-191" style="edgeStyle=orthogonalEdgeStyle;rounded=0;orthogonalLoop=1;jettySize=auto;html=1;entryX=0.5;entryY=1;entryDx=0;entryDy=0;" edge="1" parent="1" source="SKXU1txZGcmMUcYrsBVd-185" target="SKXU1txZGcmMUcYrsBVd-177">
          <mxGeometry relative="1" as="geometry" />
        </mxCell>
        <mxCell id="SKXU1txZGcmMUcYrsBVd-193" style="edgeStyle=orthogonalEdgeStyle;rounded=0;orthogonalLoop=1;jettySize=auto;html=1;entryX=1;entryY=0.5;entryDx=0;entryDy=0;" edge="1" parent="1" source="SKXU1txZGcmMUcYrsBVd-185" target="SKXU1txZGcmMUcYrsBVd-192">
          <mxGeometry relative="1" as="geometry">
            <Array as="points">
              <mxPoint x="2154" y="-1366" />
            </Array>
          </mxGeometry>
        </mxCell>
        <mxCell id="SKXU1txZGcmMUcYrsBVd-185" value="&lt;span style=&quot;font-size: 24px;&quot;&gt;FUNCIONARIO&lt;/span&gt;" style="html=1;whiteSpace=wrap;fillColor=#b1ddf0;strokeColor=#10739e;" vertex="1" parent="1">
          <mxGeometry x="2019" y="-1536" width="270" height="100" as="geometry" />
        </mxCell>
        <mxCell id="SKXU1txZGcmMUcYrsBVd-188" style="edgeStyle=orthogonalEdgeStyle;rounded=0;orthogonalLoop=1;jettySize=auto;html=1;entryX=0.75;entryY=0;entryDx=0;entryDy=0;" edge="1" parent="1" source="SKXU1txZGcmMUcYrsBVd-186" target="SKXU1txZGcmMUcYrsBVd-185">
          <mxGeometry relative="1" as="geometry" />
        </mxCell>
        <mxCell id="SKXU1txZGcmMUcYrsBVd-186" value="&lt;font style=&quot;font-size: 18px;&quot;&gt;NUMERO MATRICULA&lt;/font&gt;" style="ellipse;whiteSpace=wrap;html=1;fillColor=#fff2cc;strokeColor=#d6b656;" vertex="1" parent="1">
          <mxGeometry x="2139" y="-1666" width="170" height="70" as="geometry" />
        </mxCell>
        <mxCell id="SKXU1txZGcmMUcYrsBVd-190" style="edgeStyle=orthogonalEdgeStyle;rounded=0;orthogonalLoop=1;jettySize=auto;html=1;entryX=1;entryY=0.5;entryDx=0;entryDy=0;" edge="1" parent="1" source="SKXU1txZGcmMUcYrsBVd-189" target="SKXU1txZGcmMUcYrsBVd-185">
          <mxGeometry relative="1" as="geometry">
            <Array as="points">
              <mxPoint x="2394" y="-1486" />
            </Array>
          </mxGeometry>
        </mxCell>
        <mxCell id="SKXU1txZGcmMUcYrsBVd-189" value="&lt;font style=&quot;font-size: 18px;&quot;&gt;NOME&lt;/font&gt;" style="ellipse;whiteSpace=wrap;html=1;fillColor=#fff2cc;strokeColor=#d6b656;" vertex="1" parent="1">
          <mxGeometry x="2309" y="-1616" width="170" height="70" as="geometry" />
        </mxCell>
        <mxCell id="SKXU1txZGcmMUcYrsBVd-205" style="edgeStyle=orthogonalEdgeStyle;rounded=0;orthogonalLoop=1;jettySize=auto;html=1;entryX=0;entryY=0.5;entryDx=0;entryDy=0;" edge="1" parent="1" source="SKXU1txZGcmMUcYrsBVd-192" target="SKXU1txZGcmMUcYrsBVd-204">
          <mxGeometry relative="1" as="geometry" />
        </mxCell>
        <mxCell id="SKXU1txZGcmMUcYrsBVd-228" style="edgeStyle=orthogonalEdgeStyle;rounded=0;orthogonalLoop=1;jettySize=auto;html=1;entryX=0.5;entryY=0;entryDx=0;entryDy=0;" edge="1" parent="1" source="SKXU1txZGcmMUcYrsBVd-192" target="SKXU1txZGcmMUcYrsBVd-227">
          <mxGeometry relative="1" as="geometry" />
        </mxCell>
        <mxCell id="SKXU1txZGcmMUcYrsBVd-192" value="&lt;span style=&quot;font-size: 24px;&quot;&gt;EMPRESTIMO&lt;/span&gt;" style="html=1;whiteSpace=wrap;fillColor=#b1ddf0;strokeColor=#10739e;" vertex="1" parent="1">
          <mxGeometry x="1609" y="-1416" width="270" height="100" as="geometry" />
        </mxCell>
        <mxCell id="SKXU1txZGcmMUcYrsBVd-195" style="edgeStyle=orthogonalEdgeStyle;rounded=0;orthogonalLoop=1;jettySize=auto;html=1;entryX=0;entryY=0.5;entryDx=0;entryDy=0;" edge="1" parent="1" source="SKXU1txZGcmMUcYrsBVd-194" target="SKXU1txZGcmMUcYrsBVd-192">
          <mxGeometry relative="1" as="geometry" />
        </mxCell>
        <mxCell id="SKXU1txZGcmMUcYrsBVd-194" value="&lt;font style=&quot;font-size: 18px;&quot;&gt;CODIGO&lt;/font&gt;" style="ellipse;whiteSpace=wrap;html=1;fillColor=#fff2cc;strokeColor=#d6b656;" vertex="1" parent="1">
          <mxGeometry x="1429" y="-1466" width="140" height="70" as="geometry" />
        </mxCell>
        <mxCell id="SKXU1txZGcmMUcYrsBVd-203" style="edgeStyle=orthogonalEdgeStyle;rounded=0;orthogonalLoop=1;jettySize=auto;html=1;entryX=0;entryY=0.5;entryDx=0;entryDy=0;" edge="1" parent="1" source="SKXU1txZGcmMUcYrsBVd-196" target="SKXU1txZGcmMUcYrsBVd-192">
          <mxGeometry relative="1" as="geometry">
            <Array as="points">
              <mxPoint x="1340" y="-1386" />
              <mxPoint x="1514" y="-1386" />
              <mxPoint x="1514" y="-1366" />
            </Array>
          </mxGeometry>
        </mxCell>
        <mxCell id="SKXU1txZGcmMUcYrsBVd-196" value="&lt;font style=&quot;font-size: 18px;&quot;&gt;DATA/HORA EMPRESTIMO&lt;/font&gt;" style="ellipse;whiteSpace=wrap;html=1;fillColor=#fff2cc;strokeColor=#d6b656;" vertex="1" parent="1">
          <mxGeometry x="1260" y="-1471" width="160" height="80" as="geometry" />
        </mxCell>
        <mxCell id="SKXU1txZGcmMUcYrsBVd-202" style="edgeStyle=orthogonalEdgeStyle;rounded=0;orthogonalLoop=1;jettySize=auto;html=1;entryX=0;entryY=1;entryDx=0;entryDy=0;" edge="1" parent="1" source="SKXU1txZGcmMUcYrsBVd-197" target="SKXU1txZGcmMUcYrsBVd-192">
          <mxGeometry relative="1" as="geometry" />
        </mxCell>
        <mxCell id="SKXU1txZGcmMUcYrsBVd-197" value="&lt;font style=&quot;font-size: 18px;&quot;&gt;DATA PREV RETORNO&lt;/font&gt;" style="ellipse;whiteSpace=wrap;html=1;fillColor=#fff2cc;strokeColor=#d6b656;" vertex="1" parent="1">
          <mxGeometry x="1449" y="-1296" width="160" height="100" as="geometry" />
        </mxCell>
        <mxCell id="SKXU1txZGcmMUcYrsBVd-200" value="&lt;font style=&quot;font-size: 18px;&quot;&gt;DATA DEVOL&amp;nbsp;&lt;/font&gt;" style="ellipse;whiteSpace=wrap;html=1;fillColor=#fff2cc;strokeColor=#d6b656;" vertex="1" parent="1">
          <mxGeometry x="1349" y="-1386" width="160" height="100" as="geometry" />
        </mxCell>
        <mxCell id="SKXU1txZGcmMUcYrsBVd-201" style="edgeStyle=orthogonalEdgeStyle;rounded=0;orthogonalLoop=1;jettySize=auto;html=1;entryX=0.006;entryY=0.626;entryDx=0;entryDy=0;entryPerimeter=0;" edge="1" parent="1" source="SKXU1txZGcmMUcYrsBVd-200" target="SKXU1txZGcmMUcYrsBVd-192">
          <mxGeometry relative="1" as="geometry" />
        </mxCell>
        <mxCell id="SKXU1txZGcmMUcYrsBVd-204" value="&lt;span style=&quot;font-size: 24px;&quot;&gt;EMPRESTIMO_OBRA&lt;/span&gt;" style="html=1;whiteSpace=wrap;fillColor=#b1ddf0;strokeColor=#10739e;" vertex="1" parent="1">
          <mxGeometry x="1779" y="-1276" width="270" height="100" as="geometry" />
        </mxCell>
        <mxCell id="SKXU1txZGcmMUcYrsBVd-217" style="edgeStyle=orthogonalEdgeStyle;rounded=0;orthogonalLoop=1;jettySize=auto;html=1;entryX=1;entryY=0.5;entryDx=0;entryDy=0;" edge="1" parent="1" source="SKXU1txZGcmMUcYrsBVd-206" target="SKXU1txZGcmMUcYrsBVd-204">
          <mxGeometry relative="1" as="geometry" />
        </mxCell>
        <mxCell id="SKXU1txZGcmMUcYrsBVd-218" style="edgeStyle=orthogonalEdgeStyle;rounded=0;orthogonalLoop=1;jettySize=auto;html=1;entryX=0;entryY=0.5;entryDx=0;entryDy=0;" edge="1" parent="1" source="SKXU1txZGcmMUcYrsBVd-206" target="SKXU1txZGcmMUcYrsBVd-219">
          <mxGeometry relative="1" as="geometry">
            <mxPoint x="2244" y="-1006.0000000000002" as="targetPoint" />
          </mxGeometry>
        </mxCell>
        <mxCell id="SKXU1txZGcmMUcYrsBVd-206" value="&lt;span style=&quot;font-size: 24px;&quot;&gt;OBRA&lt;/span&gt;" style="html=1;whiteSpace=wrap;fillColor=#b1ddf0;strokeColor=#10739e;" vertex="1" parent="1">
          <mxGeometry x="2109" y="-1276" width="270" height="100" as="geometry" />
        </mxCell>
        <mxCell id="SKXU1txZGcmMUcYrsBVd-208" value="&lt;font style=&quot;font-size: 18px;&quot;&gt;CODIGO&lt;/font&gt;" style="ellipse;whiteSpace=wrap;html=1;fillColor=#fff2cc;strokeColor=#d6b656;" vertex="1" parent="1">
          <mxGeometry x="2269" y="-1376" width="140" height="70" as="geometry" />
        </mxCell>
        <mxCell id="SKXU1txZGcmMUcYrsBVd-211" style="edgeStyle=orthogonalEdgeStyle;rounded=0;orthogonalLoop=1;jettySize=auto;html=1;entryX=1;entryY=0.25;entryDx=0;entryDy=0;" edge="1" parent="1" source="SKXU1txZGcmMUcYrsBVd-209" target="SKXU1txZGcmMUcYrsBVd-206">
          <mxGeometry relative="1" as="geometry" />
        </mxCell>
        <mxCell id="SKXU1txZGcmMUcYrsBVd-209" value="&lt;font style=&quot;font-size: 18px;&quot;&gt;TITULO&lt;/font&gt;" style="ellipse;whiteSpace=wrap;html=1;fillColor=#fff2cc;strokeColor=#d6b656;" vertex="1" parent="1">
          <mxGeometry x="2409" y="-1336" width="140" height="70" as="geometry" />
        </mxCell>
        <mxCell id="SKXU1txZGcmMUcYrsBVd-210" style="edgeStyle=orthogonalEdgeStyle;rounded=0;orthogonalLoop=1;jettySize=auto;html=1;entryX=0.904;entryY=0.006;entryDx=0;entryDy=0;entryPerimeter=0;" edge="1" parent="1" source="SKXU1txZGcmMUcYrsBVd-208" target="SKXU1txZGcmMUcYrsBVd-206">
          <mxGeometry relative="1" as="geometry" />
        </mxCell>
        <mxCell id="SKXU1txZGcmMUcYrsBVd-212" value="&lt;font style=&quot;font-size: 18px;&quot;&gt;AUTOR PRINCIPAL&lt;/font&gt;" style="ellipse;whiteSpace=wrap;html=1;fillColor=#fff2cc;strokeColor=#d6b656;" vertex="1" parent="1">
          <mxGeometry x="2419" y="-1256" width="140" height="70" as="geometry" />
        </mxCell>
        <mxCell id="SKXU1txZGcmMUcYrsBVd-215" style="edgeStyle=orthogonalEdgeStyle;rounded=0;orthogonalLoop=1;jettySize=auto;html=1;entryX=1;entryY=0.5;entryDx=0;entryDy=0;" edge="1" parent="1" source="SKXU1txZGcmMUcYrsBVd-213" target="SKXU1txZGcmMUcYrsBVd-206">
          <mxGeometry relative="1" as="geometry" />
        </mxCell>
        <mxCell id="SKXU1txZGcmMUcYrsBVd-213" value="&lt;font style=&quot;font-size: 18px;&quot;&gt;ANO PUBLICACAO&lt;/font&gt;" style="ellipse;whiteSpace=wrap;html=1;fillColor=#fff2cc;strokeColor=#d6b656;" vertex="1" parent="1">
          <mxGeometry x="2419" y="-1166" width="140" height="70" as="geometry" />
        </mxCell>
        <mxCell id="SKXU1txZGcmMUcYrsBVd-216" style="edgeStyle=orthogonalEdgeStyle;rounded=0;orthogonalLoop=1;jettySize=auto;html=1;" edge="1" parent="1" source="SKXU1txZGcmMUcYrsBVd-214" target="SKXU1txZGcmMUcYrsBVd-206">
          <mxGeometry relative="1" as="geometry">
            <Array as="points">
              <mxPoint x="2379" y="-1041" />
            </Array>
          </mxGeometry>
        </mxCell>
        <mxCell id="SKXU1txZGcmMUcYrsBVd-214" value="&lt;font style=&quot;font-size: 18px;&quot;&gt;SITUACAO&lt;/font&gt;" style="ellipse;whiteSpace=wrap;html=1;fillColor=#fff2cc;strokeColor=#d6b656;" vertex="1" parent="1">
          <mxGeometry x="2419" y="-1076" width="140" height="70" as="geometry" />
        </mxCell>
        <mxCell id="SKXU1txZGcmMUcYrsBVd-219" value="&lt;span style=&quot;font-size: 24px;&quot;&gt;EDITORA&lt;/span&gt;" style="html=1;whiteSpace=wrap;fillColor=#b1ddf0;strokeColor=#10739e;" vertex="1" parent="1">
          <mxGeometry x="2339" y="-925" width="270" height="100" as="geometry" />
        </mxCell>
        <mxCell id="SKXU1txZGcmMUcYrsBVd-220" value="&lt;font style=&quot;font-size: 18px;&quot;&gt;CODIGO&lt;/font&gt;" style="ellipse;whiteSpace=wrap;html=1;fillColor=#fff2cc;strokeColor=#d6b656;" vertex="1" parent="1">
          <mxGeometry x="2589" y="-1026" width="140" height="70" as="geometry" />
        </mxCell>
        <mxCell id="SKXU1txZGcmMUcYrsBVd-221" value="&lt;font style=&quot;font-size: 18px;&quot;&gt;NOME&lt;/font&gt;" style="ellipse;whiteSpace=wrap;html=1;fillColor=#fff2cc;strokeColor=#d6b656;" vertex="1" parent="1">
          <mxGeometry x="2659" y="-956" width="140" height="70" as="geometry" />
        </mxCell>
        <mxCell id="SKXU1txZGcmMUcYrsBVd-225" style="edgeStyle=orthogonalEdgeStyle;rounded=0;orthogonalLoop=1;jettySize=auto;html=1;entryX=1;entryY=0.5;entryDx=0;entryDy=0;" edge="1" parent="1" source="SKXU1txZGcmMUcYrsBVd-222" target="SKXU1txZGcmMUcYrsBVd-219">
          <mxGeometry relative="1" as="geometry" />
        </mxCell>
        <mxCell id="SKXU1txZGcmMUcYrsBVd-222" value="&lt;font style=&quot;font-size: 18px;&quot;&gt;CIDADE&lt;/font&gt;" style="ellipse;whiteSpace=wrap;html=1;fillColor=#fff2cc;strokeColor=#d6b656;" vertex="1" parent="1">
          <mxGeometry x="2659" y="-876" width="140" height="70" as="geometry" />
        </mxCell>
        <mxCell id="SKXU1txZGcmMUcYrsBVd-223" style="edgeStyle=orthogonalEdgeStyle;rounded=0;orthogonalLoop=1;jettySize=auto;html=1;" edge="1" parent="1" source="SKXU1txZGcmMUcYrsBVd-220">
          <mxGeometry relative="1" as="geometry">
            <mxPoint x="2579" y="-926" as="targetPoint" />
            <Array as="points">
              <mxPoint x="2639" y="-936" />
              <mxPoint x="2580" y="-936" />
              <mxPoint x="2580" y="-926" />
            </Array>
          </mxGeometry>
        </mxCell>
        <mxCell id="SKXU1txZGcmMUcYrsBVd-224" style="edgeStyle=orthogonalEdgeStyle;rounded=0;orthogonalLoop=1;jettySize=auto;html=1;entryX=1;entryY=0.13;entryDx=0;entryDy=0;entryPerimeter=0;" edge="1" parent="1" source="SKXU1txZGcmMUcYrsBVd-221" target="SKXU1txZGcmMUcYrsBVd-219">
          <mxGeometry relative="1" as="geometry" />
        </mxCell>
        <mxCell id="SKXU1txZGcmMUcYrsBVd-230" style="edgeStyle=orthogonalEdgeStyle;rounded=0;orthogonalLoop=1;jettySize=auto;html=1;entryX=0.25;entryY=1;entryDx=0;entryDy=0;" edge="1" parent="1" source="SKXU1txZGcmMUcYrsBVd-226" target="SKXU1txZGcmMUcYrsBVd-206">
          <mxGeometry relative="1" as="geometry" />
        </mxCell>
        <mxCell id="SKXU1txZGcmMUcYrsBVd-226" value="&lt;span style=&quot;font-size: 24px;&quot;&gt;RESERVA&lt;/span&gt;" style="html=1;whiteSpace=wrap;fillColor=#b1ddf0;strokeColor=#10739e;" vertex="1" parent="1">
          <mxGeometry x="1824" y="-1030" width="270" height="100" as="geometry" />
        </mxCell>
        <mxCell id="SKXU1txZGcmMUcYrsBVd-229" style="edgeStyle=orthogonalEdgeStyle;rounded=0;orthogonalLoop=1;jettySize=auto;html=1;entryX=0;entryY=0.5;entryDx=0;entryDy=0;" edge="1" parent="1" source="SKXU1txZGcmMUcYrsBVd-227" target="SKXU1txZGcmMUcYrsBVd-226">
          <mxGeometry relative="1" as="geometry" />
        </mxCell>
        <mxCell id="SKXU1txZGcmMUcYrsBVd-227" value="&lt;span style=&quot;font-size: 24px;&quot;&gt;USUARIO&lt;/span&gt;" style="html=1;whiteSpace=wrap;fillColor=#b1ddf0;strokeColor=#10739e;" vertex="1" parent="1">
          <mxGeometry x="1469" y="-1030" width="270" height="100" as="geometry" />
        </mxCell>
        <mxCell id="SKXU1txZGcmMUcYrsBVd-234" style="edgeStyle=orthogonalEdgeStyle;rounded=0;orthogonalLoop=1;jettySize=auto;html=1;" edge="1" parent="1" source="SKXU1txZGcmMUcYrsBVd-231" target="SKXU1txZGcmMUcYrsBVd-226">
          <mxGeometry relative="1" as="geometry" />
        </mxCell>
        <mxCell id="SKXU1txZGcmMUcYrsBVd-231" value="&lt;font style=&quot;font-size: 18px;&quot;&gt;CODIGO&lt;/font&gt;" style="ellipse;whiteSpace=wrap;html=1;fillColor=#fff2cc;strokeColor=#d6b656;" vertex="1" parent="1">
          <mxGeometry x="1809" y="-890" width="140" height="70" as="geometry" />
        </mxCell>
        <mxCell id="SKXU1txZGcmMUcYrsBVd-232" value="&lt;font style=&quot;font-size: 18px;&quot;&gt;DATA/HORA RESERVA&lt;/font&gt;" style="ellipse;whiteSpace=wrap;html=1;fillColor=#fff2cc;strokeColor=#d6b656;" vertex="1" parent="1">
          <mxGeometry x="1979" y="-900" width="150" height="90" as="geometry" />
        </mxCell>
        <mxCell id="SKXU1txZGcmMUcYrsBVd-233" value="&lt;font style=&quot;font-size: 18px;&quot;&gt;DATA RETIRADA&lt;/font&gt;" style="ellipse;whiteSpace=wrap;html=1;fillColor=#fff2cc;strokeColor=#d6b656;" vertex="1" parent="1">
          <mxGeometry x="1899" y="-800" width="150" height="90" as="geometry" />
        </mxCell>
        <mxCell id="SKXU1txZGcmMUcYrsBVd-235" style="edgeStyle=orthogonalEdgeStyle;rounded=0;orthogonalLoop=1;jettySize=auto;html=1;entryX=0.565;entryY=1.011;entryDx=0;entryDy=0;entryPerimeter=0;" edge="1" parent="1" source="SKXU1txZGcmMUcYrsBVd-232" target="SKXU1txZGcmMUcYrsBVd-226">
          <mxGeometry relative="1" as="geometry" />
        </mxCell>
        <mxCell id="SKXU1txZGcmMUcYrsBVd-236" style="edgeStyle=orthogonalEdgeStyle;rounded=0;orthogonalLoop=1;jettySize=auto;html=1;entryX=0.54;entryY=1;entryDx=0;entryDy=0;entryPerimeter=0;" edge="1" parent="1" source="SKXU1txZGcmMUcYrsBVd-233" target="SKXU1txZGcmMUcYrsBVd-226">
          <mxGeometry relative="1" as="geometry" />
        </mxCell>
        <mxCell id="SKXU1txZGcmMUcYrsBVd-242" style="edgeStyle=orthogonalEdgeStyle;rounded=0;orthogonalLoop=1;jettySize=auto;html=1;entryX=0;entryY=0.5;entryDx=0;entryDy=0;" edge="1" parent="1" source="SKXU1txZGcmMUcYrsBVd-237" target="SKXU1txZGcmMUcYrsBVd-227">
          <mxGeometry relative="1" as="geometry" />
        </mxCell>
        <mxCell id="SKXU1txZGcmMUcYrsBVd-237" value="&lt;font style=&quot;font-size: 18px;&quot;&gt;CODIGO&lt;/font&gt;" style="ellipse;whiteSpace=wrap;html=1;fillColor=#fff2cc;strokeColor=#d6b656;" vertex="1" parent="1">
          <mxGeometry x="1280" y="-1009" width="140" height="70" as="geometry" />
        </mxCell>
        <mxCell id="SKXU1txZGcmMUcYrsBVd-238" value="&lt;font style=&quot;font-size: 18px;&quot;&gt;NOME&lt;/font&gt;" style="ellipse;whiteSpace=wrap;html=1;fillColor=#fff2cc;strokeColor=#d6b656;" vertex="1" parent="1">
          <mxGeometry x="1319" y="-930" width="140" height="70" as="geometry" />
        </mxCell>
        <mxCell id="SKXU1txZGcmMUcYrsBVd-239" value="&lt;font style=&quot;font-size: 18px;&quot;&gt;ENDEREÃO&lt;/font&gt;" style="ellipse;whiteSpace=wrap;html=1;fillColor=#fff2cc;strokeColor=#d6b656;" vertex="1" parent="1">
          <mxGeometry x="1369" y="-850" width="140" height="70" as="geometry" />
        </mxCell>
        <mxCell id="SKXU1txZGcmMUcYrsBVd-240" value="&lt;font style=&quot;font-size: 18px;&quot;&gt;TELEFONE&lt;/font&gt;" style="ellipse;whiteSpace=wrap;html=1;fillColor=#fff2cc;strokeColor=#d6b656;" vertex="1" parent="1">
          <mxGeometry x="1559" y="-890" width="140" height="70" as="geometry" />
        </mxCell>
        <mxCell id="SKXU1txZGcmMUcYrsBVd-241" value="&lt;font style=&quot;font-size: 18px;&quot;&gt;CPF&lt;/font&gt;" style="ellipse;whiteSpace=wrap;html=1;fillColor=#fff2cc;strokeColor=#d6b656;" vertex="1" parent="1">
          <mxGeometry x="1499" y="-810" width="140" height="70" as="geometry" />
        </mxCell>
        <mxCell id="SKXU1txZGcmMUcYrsBVd-243" style="edgeStyle=orthogonalEdgeStyle;rounded=0;orthogonalLoop=1;jettySize=auto;html=1;entryX=0.099;entryY=1.033;entryDx=0;entryDy=0;entryPerimeter=0;" edge="1" parent="1" source="SKXU1txZGcmMUcYrsBVd-238" target="SKXU1txZGcmMUcYrsBVd-227">
          <mxGeometry relative="1" as="geometry" />
        </mxCell>
        <mxCell id="SKXU1txZGcmMUcYrsBVd-244" style="edgeStyle=orthogonalEdgeStyle;rounded=0;orthogonalLoop=1;jettySize=auto;html=1;entryX=0.158;entryY=1.007;entryDx=0;entryDy=0;entryPerimeter=0;" edge="1" parent="1" source="SKXU1txZGcmMUcYrsBVd-239" target="SKXU1txZGcmMUcYrsBVd-227">
          <mxGeometry relative="1" as="geometry">
            <Array as="points">
              <mxPoint x="1479" y="-890" />
              <mxPoint x="1512" y="-890" />
            </Array>
          </mxGeometry>
        </mxCell>
        <mxCell id="SKXU1txZGcmMUcYrsBVd-245" style="edgeStyle=orthogonalEdgeStyle;rounded=0;orthogonalLoop=1;jettySize=auto;html=1;entryX=0.207;entryY=1.02;entryDx=0;entryDy=0;entryPerimeter=0;" edge="1" parent="1" source="SKXU1txZGcmMUcYrsBVd-241" target="SKXU1txZGcmMUcYrsBVd-227">
          <mxGeometry relative="1" as="geometry">
            <Array as="points">
              <mxPoint x="1539" y="-870" />
              <mxPoint x="1525" y="-870" />
            </Array>
          </mxGeometry>
        </mxCell>
        <mxCell id="SKXU1txZGcmMUcYrsBVd-246" style="edgeStyle=orthogonalEdgeStyle;rounded=0;orthogonalLoop=1;jettySize=auto;html=1;entryX=0.326;entryY=1.02;entryDx=0;entryDy=0;entryPerimeter=0;" edge="1" parent="1" source="SKXU1txZGcmMUcYrsBVd-240" target="SKXU1txZGcmMUcYrsBVd-227">
          <mxGeometry relative="1" as="geometry" />
        </mxCell>
        <mxCell id="SKXU1txZGcmMUcYrsBVd-247" value="1" style="edgeLabel;resizable=0;html=1;align=left;verticalAlign=bottom;fontSize=15;" connectable="0" vertex="1" parent="1">
          <mxGeometry x="1729" y="-1711" as="geometry" />
        </mxCell>
        <mxCell id="SKXU1txZGcmMUcYrsBVd-248" value="1" style="edgeLabel;resizable=0;html=1;align=left;verticalAlign=bottom;fontSize=15;" connectable="0" vertex="1" parent="1">
          <mxGeometry x="1729" y="-1656" as="geometry" />
        </mxCell>
        <mxCell id="SKXU1txZGcmMUcYrsBVd-249" value="1" style="edgeLabel;resizable=0;html=1;align=left;verticalAlign=bottom;fontSize=15;" connectable="0" vertex="1" parent="1">
          <mxGeometry x="1749" y="-1506" as="geometry" />
        </mxCell>
        <mxCell id="SKXU1txZGcmMUcYrsBVd-250" value="N" style="edgeLabel;resizable=0;html=1;align=left;verticalAlign=bottom;fontSize=15;" connectable="0" vertex="1" parent="1">
          <mxGeometry x="1999" y="-1496" as="geometry" />
        </mxCell>
        <mxCell id="SKXU1txZGcmMUcYrsBVd-251" value="1" style="edgeLabel;resizable=0;html=1;align=left;verticalAlign=bottom;fontSize=15;" connectable="0" vertex="1" parent="1">
          <mxGeometry x="1769" y="-1671" as="geometry">
            <mxPoint x="367" y="270" as="offset" />
          </mxGeometry>
        </mxCell>
        <mxCell id="SKXU1txZGcmMUcYrsBVd-252" value="N" style="edgeLabel;resizable=0;html=1;align=left;verticalAlign=bottom;fontSize=15;" connectable="0" vertex="1" parent="1">
          <mxGeometry x="2009" y="-1486" as="geometry">
            <mxPoint x="-117" y="115" as="offset" />
          </mxGeometry>
        </mxCell>
        <mxCell id="SKXU1txZGcmMUcYrsBVd-253" value="N" style="edgeLabel;resizable=0;html=1;align=left;verticalAlign=bottom;fontSize=15;" connectable="0" vertex="1" parent="1">
          <mxGeometry x="1839" y="-1406" as="geometry">
            <mxPoint x="-117" y="115" as="offset" />
          </mxGeometry>
        </mxCell>
        <mxCell id="SKXU1txZGcmMUcYrsBVd-254" value="1" style="edgeLabel;resizable=0;html=1;align=left;verticalAlign=bottom;fontSize=15;" connectable="0" vertex="1" parent="1">
          <mxGeometry x="1759" y="-1496" as="geometry">
            <mxPoint x="-172" y="448" as="offset" />
          </mxGeometry>
        </mxCell>
        <mxCell id="SKXU1txZGcmMUcYrsBVd-255" value="N" style="edgeLabel;resizable=0;html=1;align=left;verticalAlign=bottom;fontSize=15;" connectable="0" vertex="1" parent="1">
          <mxGeometry x="1879" y="-1341" as="geometry">
            <mxPoint x="-117" y="115" as="offset" />
          </mxGeometry>
        </mxCell>
        <mxCell id="SKXU1txZGcmMUcYrsBVd-256" value="N" style="edgeLabel;resizable=0;html=1;align=left;verticalAlign=bottom;fontSize=15;" connectable="0" vertex="1" parent="1">
          <mxGeometry x="2169" y="-1341" as="geometry">
            <mxPoint x="-117" y="115" as="offset" />
          </mxGeometry>
        </mxCell>
        <mxCell id="SKXU1txZGcmMUcYrsBVd-257" value="N" style="edgeLabel;resizable=0;html=1;align=left;verticalAlign=bottom;fontSize=15;" connectable="0" vertex="1" parent="1">
          <mxGeometry x="2209" y="-1341" as="geometry">
            <mxPoint x="-117" y="115" as="offset" />
          </mxGeometry>
        </mxCell>
        <mxCell id="SKXU1txZGcmMUcYrsBVd-258" value="N" style="edgeLabel;resizable=0;html=1;align=left;verticalAlign=bottom;fontSize=15;" connectable="0" vertex="1" parent="1">
          <mxGeometry x="1919" y="-1096" as="geometry">
            <mxPoint x="-117" y="115" as="offset" />
          </mxGeometry>
        </mxCell>
        <mxCell id="SKXU1txZGcmMUcYrsBVd-259" value="1" style="edgeLabel;resizable=0;html=1;align=left;verticalAlign=bottom;fontSize=15;" connectable="0" vertex="1" parent="1">
          <mxGeometry x="1919" y="-1431" as="geometry">
            <mxPoint x="-172" y="448" as="offset" />
          </mxGeometry>
        </mxCell>
        <mxCell id="SKXU1txZGcmMUcYrsBVd-260" value="N" style="edgeLabel;resizable=0;html=1;align=left;verticalAlign=bottom;fontSize=15;" connectable="0" vertex="1" parent="1">
          <mxGeometry x="2219" y="-1096" as="geometry">
            <mxPoint x="-117" y="115" as="offset" />
          </mxGeometry>
        </mxCell>
        <mxCell id="SKXU1txZGcmMUcYrsBVd-261" value="1" style="edgeLabel;resizable=0;html=1;align=left;verticalAlign=bottom;fontSize=15;" connectable="0" vertex="1" parent="1">
          <mxGeometry x="2329" y="-1596" as="geometry">
            <mxPoint x="-172" y="448" as="offset" />
          </mxGeometry>
        </mxCell>
        <mxCell id="SKXU1txZGcmMUcYrsBVd-262" value="1" style="edgeLabel;resizable=0;html=1;align=left;verticalAlign=bottom;fontSize=15;" connectable="0" vertex="1" parent="1">
          <mxGeometry x="2489" y="-1296" as="geometry">
            <mxPoint x="-172" y="448" as="offset" />
          </mxGeometry>
        </mxCell>
        <mxCell id="SKXU1txZGcmMUcYrsBVd-263" value="N" style="edgeLabel;resizable=0;html=1;align=left;verticalAlign=bottom;fontSize=15;" connectable="0" vertex="1" parent="1">
          <mxGeometry x="2339" y="-1261" as="geometry">
            <mxPoint x="-117" y="115" as="offset" />
          </mxGeometry>
        </mxCell>
        <mxCell id="SKXU1txZGcmMUcYrsBVd-306" style="edgeStyle=orthogonalEdgeStyle;rounded=0;orthogonalLoop=1;jettySize=auto;html=1;entryX=0;entryY=0.5;entryDx=0;entryDy=0;endArrow=none;endFill=0;" edge="1" parent="1" source="SKXU1txZGcmMUcYrsBVd-264" target="SKXU1txZGcmMUcYrsBVd-300">
          <mxGeometry relative="1" as="geometry" />
        </mxCell>
        <mxCell id="SKXU1txZGcmMUcYrsBVd-327" style="edgeStyle=orthogonalEdgeStyle;rounded=0;orthogonalLoop=1;jettySize=auto;html=1;entryX=0;entryY=0.5;entryDx=0;entryDy=0;endArrow=none;endFill=0;" edge="1" parent="1" source="SKXU1txZGcmMUcYrsBVd-264" target="SKXU1txZGcmMUcYrsBVd-273">
          <mxGeometry relative="1" as="geometry" />
        </mxCell>
        <mxCell id="SKXU1txZGcmMUcYrsBVd-264" value="PACIENTE" style="swimlane;fontStyle=0;childLayout=stackLayout;horizontal=1;startSize=30;horizontalStack=0;resizeParent=1;resizeParentMax=0;resizeLast=0;collapsible=1;marginBottom=0;whiteSpace=wrap;html=1;fillColor=#1ba1e2;fontColor=#ffffff;strokeColor=#006EAF;" vertex="1" parent="1">
          <mxGeometry x="150" y="-845" width="190" height="210" as="geometry" />
        </mxCell>
        <mxCell id="SKXU1txZGcmMUcYrsBVd-265" value="codigo (PK) : int" style="text;strokeColor=none;fillColor=none;align=left;verticalAlign=middle;spacingLeft=4;spacingRight=4;overflow=hidden;points=[[0,0.5],[1,0.5]];portConstraint=eastwest;rotatable=0;whiteSpace=wrap;html=1;" vertex="1" parent="SKXU1txZGcmMUcYrsBVd-264">
          <mxGeometry y="30" width="190" height="30" as="geometry" />
        </mxCell>
        <mxCell id="SKXU1txZGcmMUcYrsBVd-266" value="nome : varchar" style="text;strokeColor=none;fillColor=none;align=left;verticalAlign=middle;spacingLeft=4;spacingRight=4;overflow=hidden;points=[[0,0.5],[1,0.5]];portConstraint=eastwest;rotatable=0;whiteSpace=wrap;html=1;" vertex="1" parent="SKXU1txZGcmMUcYrsBVd-264">
          <mxGeometry y="60" width="190" height="30" as="geometry" />
        </mxCell>
        <mxCell id="SKXU1txZGcmMUcYrsBVd-270" value="data_nascimento: date" style="text;strokeColor=none;fillColor=none;align=left;verticalAlign=middle;spacingLeft=4;spacingRight=4;overflow=hidden;points=[[0,0.5],[1,0.5]];portConstraint=eastwest;rotatable=0;whiteSpace=wrap;html=1;" vertex="1" parent="SKXU1txZGcmMUcYrsBVd-264">
          <mxGeometry y="90" width="190" height="30" as="geometry" />
        </mxCell>
        <mxCell id="SKXU1txZGcmMUcYrsBVd-267" value="endereco : varchar" style="text;strokeColor=none;fillColor=none;align=left;verticalAlign=middle;spacingLeft=4;spacingRight=4;overflow=hidden;points=[[0,0.5],[1,0.5]];portConstraint=eastwest;rotatable=0;whiteSpace=wrap;html=1;" vertex="1" parent="SKXU1txZGcmMUcYrsBVd-264">
          <mxGeometry y="120" width="190" height="30" as="geometry" />
        </mxCell>
        <mxCell id="SKXU1txZGcmMUcYrsBVd-268" value="telefone : varchar" style="text;strokeColor=none;fillColor=none;align=left;verticalAlign=middle;spacingLeft=4;spacingRight=4;overflow=hidden;points=[[0,0.5],[1,0.5]];portConstraint=eastwest;rotatable=0;whiteSpace=wrap;html=1;" vertex="1" parent="SKXU1txZGcmMUcYrsBVd-264">
          <mxGeometry y="150" width="190" height="30" as="geometry" />
        </mxCell>
        <mxCell id="SKXU1txZGcmMUcYrsBVd-269" value="CPF : varchar" style="text;strokeColor=none;fillColor=none;align=left;verticalAlign=middle;spacingLeft=4;spacingRight=4;overflow=hidden;points=[[0,0.5],[1,0.5]];portConstraint=eastwest;rotatable=0;whiteSpace=wrap;html=1;" vertex="1" parent="SKXU1txZGcmMUcYrsBVd-264">
          <mxGeometry y="180" width="190" height="30" as="geometry" />
        </mxCell>
        <mxCell id="SKXU1txZGcmMUcYrsBVd-319" style="edgeStyle=orthogonalEdgeStyle;rounded=0;orthogonalLoop=1;jettySize=auto;html=1;entryX=0;entryY=0.5;entryDx=0;entryDy=0;endArrow=none;endFill=0;" edge="1" parent="1" source="SKXU1txZGcmMUcYrsBVd-271" target="SKXU1txZGcmMUcYrsBVd-293">
          <mxGeometry relative="1" as="geometry" />
        </mxCell>
        <mxCell id="SKXU1txZGcmMUcYrsBVd-271" value="VACINA" style="swimlane;fontStyle=0;childLayout=stackLayout;horizontal=1;startSize=30;horizontalStack=0;resizeParent=1;resizeParentMax=0;resizeLast=0;collapsible=1;marginBottom=0;whiteSpace=wrap;html=1;fillColor=#1ba1e2;fontColor=#ffffff;strokeColor=#006EAF;" vertex="1" parent="1">
          <mxGeometry x="435" y="-684" width="170" height="120" as="geometry" />
        </mxCell>
        <mxCell id="SKXU1txZGcmMUcYrsBVd-272" value="codigo (PK) : int" style="text;strokeColor=none;fillColor=none;align=left;verticalAlign=middle;spacingLeft=4;spacingRight=4;overflow=hidden;points=[[0,0.5],[1,0.5]];portConstraint=eastwest;rotatable=0;whiteSpace=wrap;html=1;" vertex="1" parent="SKXU1txZGcmMUcYrsBVd-271">
          <mxGeometry y="30" width="170" height="30" as="geometry" />
        </mxCell>
        <mxCell id="SKXU1txZGcmMUcYrsBVd-273" value="nome : varchar" style="text;strokeColor=none;fillColor=none;align=left;verticalAlign=middle;spacingLeft=4;spacingRight=4;overflow=hidden;points=[[0,0.5],[1,0.5]];portConstraint=eastwest;rotatable=0;whiteSpace=wrap;html=1;" vertex="1" parent="SKXU1txZGcmMUcYrsBVd-271">
          <mxGeometry y="60" width="170" height="30" as="geometry" />
        </mxCell>
        <mxCell id="SKXU1txZGcmMUcYrsBVd-275" value="fabricante : varchar" style="text;strokeColor=none;fillColor=none;align=left;verticalAlign=middle;spacingLeft=4;spacingRight=4;overflow=hidden;points=[[0,0.5],[1,0.5]];portConstraint=eastwest;rotatable=0;whiteSpace=wrap;html=1;" vertex="1" parent="SKXU1txZGcmMUcYrsBVd-271">
          <mxGeometry y="90" width="170" height="30" as="geometry" />
        </mxCell>
        <mxCell id="SKXU1txZGcmMUcYrsBVd-322" style="edgeStyle=orthogonalEdgeStyle;rounded=0;orthogonalLoop=1;jettySize=auto;html=1;entryX=1;entryY=0.5;entryDx=0;entryDy=0;endArrow=none;endFill=0;" edge="1" parent="1" source="SKXU1txZGcmMUcYrsBVd-276" target="SKXU1txZGcmMUcYrsBVd-282">
          <mxGeometry relative="1" as="geometry">
            <Array as="points">
              <mxPoint x="650" y="-429" />
              <mxPoint x="650" y="-429" />
            </Array>
          </mxGeometry>
        </mxCell>
        <mxCell id="SKXU1txZGcmMUcYrsBVd-276" value="POSTO DE SAUDE" style="swimlane;fontStyle=0;childLayout=stackLayout;horizontal=1;startSize=30;horizontalStack=0;resizeParent=1;resizeParentMax=0;resizeLast=0;collapsible=1;marginBottom=0;whiteSpace=wrap;html=1;fillColor=#1ba1e2;fontColor=#ffffff;strokeColor=#006EAF;" vertex="1" parent="1">
          <mxGeometry x="690" y="-484" width="170" height="120" as="geometry" />
        </mxCell>
        <mxCell id="SKXU1txZGcmMUcYrsBVd-277" value="codigo (PK) : int" style="text;strokeColor=none;fillColor=none;align=left;verticalAlign=middle;spacingLeft=4;spacingRight=4;overflow=hidden;points=[[0,0.5],[1,0.5]];portConstraint=eastwest;rotatable=0;whiteSpace=wrap;html=1;" vertex="1" parent="SKXU1txZGcmMUcYrsBVd-276">
          <mxGeometry y="30" width="170" height="30" as="geometry" />
        </mxCell>
        <mxCell id="SKXU1txZGcmMUcYrsBVd-278" value="nome : varchar" style="text;strokeColor=none;fillColor=none;align=left;verticalAlign=middle;spacingLeft=4;spacingRight=4;overflow=hidden;points=[[0,0.5],[1,0.5]];portConstraint=eastwest;rotatable=0;whiteSpace=wrap;html=1;" vertex="1" parent="SKXU1txZGcmMUcYrsBVd-276">
          <mxGeometry y="60" width="170" height="30" as="geometry" />
        </mxCell>
        <mxCell id="SKXU1txZGcmMUcYrsBVd-279" value="endereco : varchar" style="text;strokeColor=none;fillColor=none;align=left;verticalAlign=middle;spacingLeft=4;spacingRight=4;overflow=hidden;points=[[0,0.5],[1,0.5]];portConstraint=eastwest;rotatable=0;whiteSpace=wrap;html=1;" vertex="1" parent="SKXU1txZGcmMUcYrsBVd-276">
          <mxGeometry y="90" width="170" height="30" as="geometry" />
        </mxCell>
        <mxCell id="SKXU1txZGcmMUcYrsBVd-280" value="ENFERMEIRO" style="swimlane;fontStyle=0;childLayout=stackLayout;horizontal=1;startSize=30;horizontalStack=0;resizeParent=1;resizeParentMax=0;resizeLast=0;collapsible=1;marginBottom=0;whiteSpace=wrap;html=1;fillColor=#1ba1e2;strokeColor=#006EAF;fontColor=#ffffff;" vertex="1" parent="1">
          <mxGeometry x="365" y="-504" width="190" height="150" as="geometry" />
        </mxCell>
        <mxCell id="SKXU1txZGcmMUcYrsBVd-281" value="matricula_codigo (PK) : int" style="text;strokeColor=none;fillColor=none;align=left;verticalAlign=middle;spacingLeft=4;spacingRight=4;overflow=hidden;points=[[0,0.5],[1,0.5]];portConstraint=eastwest;rotatable=0;whiteSpace=wrap;html=1;" vertex="1" parent="SKXU1txZGcmMUcYrsBVd-280">
          <mxGeometry y="30" width="190" height="30" as="geometry" />
        </mxCell>
        <mxCell id="SKXU1txZGcmMUcYrsBVd-282" value="nome : varchar" style="text;strokeColor=none;fillColor=none;align=left;verticalAlign=middle;spacingLeft=4;spacingRight=4;overflow=hidden;points=[[0,0.5],[1,0.5]];portConstraint=eastwest;rotatable=0;whiteSpace=wrap;html=1;" vertex="1" parent="SKXU1txZGcmMUcYrsBVd-280">
          <mxGeometry y="60" width="190" height="30" as="geometry" />
        </mxCell>
        <mxCell id="SKXU1txZGcmMUcYrsBVd-283" value="posto_codigo(FK) : int" style="text;strokeColor=none;fillColor=none;align=left;verticalAlign=middle;spacingLeft=4;spacingRight=4;overflow=hidden;points=[[0,0.5],[1,0.5]];portConstraint=eastwest;rotatable=0;whiteSpace=wrap;html=1;" vertex="1" parent="SKXU1txZGcmMUcYrsBVd-280">
          <mxGeometry y="90" width="190" height="30" as="geometry" />
        </mxCell>
        <mxCell id="SKXU1txZGcmMUcYrsBVd-284" value="chefe_matricula (FK) : int" style="text;strokeColor=none;fillColor=none;align=left;verticalAlign=middle;spacingLeft=4;spacingRight=4;overflow=hidden;points=[[0,0.5],[1,0.5]];portConstraint=eastwest;rotatable=0;whiteSpace=wrap;html=1;" vertex="1" parent="SKXU1txZGcmMUcYrsBVd-280">
          <mxGeometry y="120" width="190" height="30" as="geometry" />
        </mxCell>
        <mxCell id="SKXU1txZGcmMUcYrsBVd-287" value="VACINACAO" style="swimlane;fontStyle=0;childLayout=stackLayout;horizontal=1;startSize=30;horizontalStack=0;resizeParent=1;resizeParentMax=0;resizeLast=0;collapsible=1;marginBottom=0;whiteSpace=wrap;html=1;fillColor=#1ba1e2;fontColor=#ffffff;strokeColor=#006EAF;" vertex="1" parent="1">
          <mxGeometry x="700" y="-845" width="190" height="240" as="geometry" />
        </mxCell>
        <mxCell id="SKXU1txZGcmMUcYrsBVd-292" value="codigo (PK) : int" style="text;strokeColor=none;fillColor=none;align=left;verticalAlign=middle;spacingLeft=4;spacingRight=4;overflow=hidden;points=[[0,0.5],[1,0.5]];portConstraint=eastwest;rotatable=0;whiteSpace=wrap;html=1;" vertex="1" parent="SKXU1txZGcmMUcYrsBVd-287">
          <mxGeometry y="30" width="190" height="30" as="geometry" />
        </mxCell>
        <mxCell id="SKXU1txZGcmMUcYrsBVd-288" value="data : datetime" style="text;strokeColor=none;fillColor=none;align=left;verticalAlign=middle;spacingLeft=4;spacingRight=4;overflow=hidden;points=[[0,0.5],[1,0.5]];portConstraint=eastwest;rotatable=0;whiteSpace=wrap;html=1;" vertex="1" parent="SKXU1txZGcmMUcYrsBVd-287">
          <mxGeometry y="60" width="190" height="30" as="geometry" />
        </mxCell>
        <mxCell id="SKXU1txZGcmMUcYrsBVd-289" value="nome : varchar" style="text;strokeColor=none;fillColor=none;align=left;verticalAlign=middle;spacingLeft=4;spacingRight=4;overflow=hidden;points=[[0,0.5],[1,0.5]];portConstraint=eastwest;rotatable=0;whiteSpace=wrap;html=1;" vertex="1" parent="SKXU1txZGcmMUcYrsBVd-287">
          <mxGeometry y="90" width="190" height="30" as="geometry" />
        </mxCell>
        <mxCell id="SKXU1txZGcmMUcYrsBVd-290" value="paciente_codigo(FK) : int" style="text;strokeColor=none;fillColor=none;align=left;verticalAlign=middle;spacingLeft=4;spacingRight=4;overflow=hidden;points=[[0,0.5],[1,0.5]];portConstraint=eastwest;rotatable=0;whiteSpace=wrap;html=1;" vertex="1" parent="SKXU1txZGcmMUcYrsBVd-287">
          <mxGeometry y="120" width="190" height="30" as="geometry" />
        </mxCell>
        <mxCell id="SKXU1txZGcmMUcYrsBVd-293" value="vacina_codigo (FK) : int" style="text;strokeColor=none;fillColor=none;align=left;verticalAlign=middle;spacingLeft=4;spacingRight=4;overflow=hidden;points=[[0,0.5],[1,0.5]];portConstraint=eastwest;rotatable=0;whiteSpace=wrap;html=1;" vertex="1" parent="SKXU1txZGcmMUcYrsBVd-287">
          <mxGeometry y="150" width="190" height="30" as="geometry" />
        </mxCell>
        <mxCell id="SKXU1txZGcmMUcYrsBVd-294" value="enfermeiro_matricula (FK) : int" style="text;strokeColor=none;fillColor=none;align=left;verticalAlign=middle;spacingLeft=4;spacingRight=4;overflow=hidden;points=[[0,0.5],[1,0.5]];portConstraint=eastwest;rotatable=0;whiteSpace=wrap;html=1;" vertex="1" parent="SKXU1txZGcmMUcYrsBVd-287">
          <mxGeometry y="180" width="190" height="30" as="geometry" />
        </mxCell>
        <mxCell id="SKXU1txZGcmMUcYrsBVd-295" value="posto_codigo(FK) : int" style="text;strokeColor=none;fillColor=none;align=left;verticalAlign=middle;spacingLeft=4;spacingRight=4;overflow=hidden;points=[[0,0.5],[1,0.5]];portConstraint=eastwest;rotatable=0;whiteSpace=wrap;html=1;" vertex="1" parent="SKXU1txZGcmMUcYrsBVd-287">
          <mxGeometry y="210" width="190" height="30" as="geometry" />
        </mxCell>
        <mxCell id="SKXU1txZGcmMUcYrsBVd-296" value="PACIENTE_VACINA" style="swimlane;fontStyle=0;childLayout=stackLayout;horizontal=1;startSize=30;horizontalStack=0;resizeParent=1;resizeParentMax=0;resizeLast=0;collapsible=1;marginBottom=0;whiteSpace=wrap;html=1;fillColor=#1ba1e2;fontColor=#ffffff;strokeColor=#006EAF;" vertex="1" parent="1">
          <mxGeometry x="425" y="-890" width="190" height="90" as="geometry" />
        </mxCell>
        <mxCell id="SKXU1txZGcmMUcYrsBVd-300" value="paciente_codigo(FK) : int" style="text;strokeColor=none;fillColor=none;align=left;verticalAlign=middle;spacingLeft=4;spacingRight=4;overflow=hidden;points=[[0,0.5],[1,0.5]];portConstraint=eastwest;rotatable=0;whiteSpace=wrap;html=1;" vertex="1" parent="SKXU1txZGcmMUcYrsBVd-296">
          <mxGeometry y="30" width="190" height="30" as="geometry" />
        </mxCell>
        <mxCell id="SKXU1txZGcmMUcYrsBVd-301" value="vacina_codigo (FK) : int" style="text;strokeColor=none;fillColor=none;align=left;verticalAlign=middle;spacingLeft=4;spacingRight=4;overflow=hidden;points=[[0,0.5],[1,0.5]];portConstraint=eastwest;rotatable=0;whiteSpace=wrap;html=1;" vertex="1" parent="SKXU1txZGcmMUcYrsBVd-296">
          <mxGeometry y="60" width="190" height="30" as="geometry" />
        </mxCell>
        <mxCell id="SKXU1txZGcmMUcYrsBVd-307" style="edgeStyle=orthogonalEdgeStyle;rounded=0;orthogonalLoop=1;jettySize=auto;html=1;entryX=1;entryY=0.5;entryDx=0;entryDy=0;endArrow=none;endFill=0;" edge="1" parent="1" source="SKXU1txZGcmMUcYrsBVd-289" target="SKXU1txZGcmMUcYrsBVd-296">
          <mxGeometry relative="1" as="geometry" />
        </mxCell>
        <mxCell id="SKXU1txZGcmMUcYrsBVd-308" value="1" style="edgeLabel;resizable=0;html=1;align=left;verticalAlign=bottom;fontSize=15;" connectable="0" vertex="1" parent="1">
          <mxGeometry x="340" y="-740" as="geometry" />
        </mxCell>
        <mxCell id="SKXU1txZGcmMUcYrsBVd-309" value="N" style="edgeLabel;resizable=0;html=1;align=left;verticalAlign=bottom;fontSize=15;" connectable="0" vertex="1" parent="1">
          <mxGeometry x="290" y="-1076" as="geometry">
            <mxPoint x="114" y="232" as="offset" />
          </mxGeometry>
        </mxCell>
        <mxCell id="SKXU1txZGcmMUcYrsBVd-311" value="N" style="edgeLabel;resizable=0;html=1;align=left;verticalAlign=bottom;fontSize=15;" connectable="0" vertex="1" parent="1">
          <mxGeometry x="510" y="-1080" as="geometry">
            <mxPoint x="114" y="232" as="offset" />
          </mxGeometry>
        </mxCell>
        <mxCell id="SKXU1txZGcmMUcYrsBVd-312" value="N" style="edgeLabel;resizable=0;html=1;align=left;verticalAlign=bottom;fontSize=15;" connectable="0" vertex="1" parent="1">
          <mxGeometry x="570" y="-980" as="geometry">
            <mxPoint x="114" y="232" as="offset" />
          </mxGeometry>
        </mxCell>
        <mxCell id="SKXU1txZGcmMUcYrsBVd-315" value="CHEFE" style="swimlane;fontStyle=0;childLayout=stackLayout;horizontal=1;startSize=30;horizontalStack=0;resizeParent=1;resizeParentMax=0;resizeLast=0;collapsible=1;marginBottom=0;whiteSpace=wrap;html=1;fillColor=#1ba1e2;fontColor=#ffffff;strokeColor=#006EAF;" vertex="1" parent="1">
          <mxGeometry x="140" y="-484" width="170" height="90" as="geometry" />
        </mxCell>
        <mxCell id="SKXU1txZGcmMUcYrsBVd-316" value="codigo (PK) : int" style="text;strokeColor=none;fillColor=none;align=left;verticalAlign=middle;spacingLeft=4;spacingRight=4;overflow=hidden;points=[[0,0.5],[1,0.5]];portConstraint=eastwest;rotatable=0;whiteSpace=wrap;html=1;" vertex="1" parent="SKXU1txZGcmMUcYrsBVd-315">
          <mxGeometry y="30" width="170" height="30" as="geometry" />
        </mxCell>
        <mxCell id="SKXU1txZGcmMUcYrsBVd-317" value="nome : varchar" style="text;strokeColor=none;fillColor=none;align=left;verticalAlign=middle;spacingLeft=4;spacingRight=4;overflow=hidden;points=[[0,0.5],[1,0.5]];portConstraint=eastwest;rotatable=0;whiteSpace=wrap;html=1;" vertex="1" parent="SKXU1txZGcmMUcYrsBVd-315">
          <mxGeometry y="60" width="170" height="30" as="geometry" />
        </mxCell>
        <mxCell id="SKXU1txZGcmMUcYrsBVd-318" style="edgeStyle=orthogonalEdgeStyle;rounded=0;orthogonalLoop=1;jettySize=auto;html=1;entryX=1;entryY=-0.187;entryDx=0;entryDy=0;entryPerimeter=0;" edge="1" parent="1" source="SKXU1txZGcmMUcYrsBVd-280" target="SKXU1txZGcmMUcYrsBVd-317">
          <mxGeometry relative="1" as="geometry" />
        </mxCell>
        <mxCell id="SKXU1txZGcmMUcYrsBVd-320" value="1" style="edgeLabel;resizable=0;html=1;align=left;verticalAlign=bottom;fontSize=15;" connectable="0" vertex="1" parent="1">
          <mxGeometry x="605" y="-624" as="geometry" />
        </mxCell>
        <mxCell id="SKXU1txZGcmMUcYrsBVd-321" value="N" style="edgeLabel;resizable=0;html=1;align=left;verticalAlign=bottom;fontSize=15;" connectable="0" vertex="1" parent="1">
          <mxGeometry x="570" y="-920" as="geometry">
            <mxPoint x="114" y="232" as="offset" />
          </mxGeometry>
        </mxCell>
        <mxCell id="SKXU1txZGcmMUcYrsBVd-323" value="1" style="edgeLabel;resizable=0;html=1;align=left;verticalAlign=bottom;fontSize=15;" connectable="0" vertex="1" parent="1">
          <mxGeometry x="670" y="-404" as="geometry" />
        </mxCell>
        <mxCell id="SKXU1txZGcmMUcYrsBVd-324" value="N" style="edgeLabel;resizable=0;html=1;align=left;verticalAlign=bottom;fontSize=15;" connectable="0" vertex="1" parent="1">
          <mxGeometry x="450" y="-635" as="geometry">
            <mxPoint x="114" y="232" as="offset" />
          </mxGeometry>
        </mxCell>
        <mxCell id="SKXU1txZGcmMUcYrsBVd-325" value="1" style="edgeLabel;resizable=0;html=1;align=left;verticalAlign=bottom;fontSize=15;" connectable="0" vertex="1" parent="1">
          <mxGeometry x="350" y="-404" as="geometry" />
        </mxCell>
        <mxCell id="SKXU1txZGcmMUcYrsBVd-326" value="1" style="edgeLabel;resizable=0;html=1;align=left;verticalAlign=bottom;fontSize=15;" connectable="0" vertex="1" parent="1">
          <mxGeometry x="690" y="-384" as="geometry">
            <mxPoint x="-375" y="-19" as="offset" />
          </mxGeometry>
        </mxCell>
        <mxCell id="SKXU1txZGcmMUcYrsBVd-328" value="1" style="edgeLabel;resizable=0;html=1;align=left;verticalAlign=bottom;fontSize=15;" connectable="0" vertex="1" parent="1">
          <mxGeometry x="245" y="-584" as="geometry" />
        </mxCell>
        <mxCell id="SKXU1txZGcmMUcYrsBVd-329" value="N" style="edgeLabel;resizable=0;html=1;align=left;verticalAlign=bottom;fontSize=15;" connectable="0" vertex="1" parent="1">
          <mxGeometry x="300" y="-814" as="geometry">
            <mxPoint x="114" y="232" as="offset" />
          </mxGeometry>
        </mxCell>
        <mxCell id="SKXU1txZGcmMUcYrsBVd-330" style="edgeStyle=orthogonalEdgeStyle;rounded=0;orthogonalLoop=1;jettySize=auto;html=1;entryX=0.495;entryY=1.105;entryDx=0;entryDy=0;entryPerimeter=0;endArrow=none;endFill=0;" edge="1" parent="1" source="SKXU1txZGcmMUcYrsBVd-280" target="SKXU1txZGcmMUcYrsBVd-295">
          <mxGeometry relative="1" as="geometry">
            <Array as="points">
              <mxPoint x="630" y="-480" />
              <mxPoint x="630" y="-530" />
              <mxPoint x="794" y="-530" />
            </Array>
          </mxGeometry>
        </mxCell>
        <mxCell id="SKXU1txZGcmMUcYrsBVd-331" value="1" style="edgeLabel;resizable=0;html=1;align=left;verticalAlign=bottom;fontSize=15;" connectable="0" vertex="1" parent="1">
          <mxGeometry x="680" y="-394" as="geometry">
            <mxPoint x="-125" y="-88" as="offset" />
          </mxGeometry>
        </mxCell>
        <mxCell id="SKXU1txZGcmMUcYrsBVd-332" value="N" style="edgeLabel;resizable=0;html=1;align=left;verticalAlign=bottom;fontSize=15;" connectable="0" vertex="1" parent="1">
          <mxGeometry x="660" y="-810" as="geometry">
            <mxPoint x="114" y="232" as="offset" />
          </mxGeometry>
        </mxCell>
      </root>
    </mxGraphModel>
  </diagram>
</mxfile>
